<svg xmlns="http://www.w3.org/2000/svg" viewBox="0 0 1200 700" width="1200" height="700" role="img" aria-label="Торт">
  <g fill="none" stroke="#111111" stroke-width="28" stroke-linecap="round" stroke-linejoin="round">
    <path d="M260 560
             L940 560
             C940 608, 907 638, 854 638
             L346 638
             C293 638, 260 608, 260 560Z"></path>

    <path d="M300 560
             L300 350
             C300 312, 326 290, 367 290
             L833 290
             C874 290, 900 312, 900 350
             L900 560"></path>

    <path d="M330 290
             C360 250, 405 240, 446 268
             C486 295, 530 295, 571 268
             C612 240, 657 241, 697 270
             C736 298, 780 298, 820 270
             C847 251, 878 252, 900 268"></path>

    <path d="M348 356
             C375 391, 410 392, 438 356
             C466 320, 500 320, 528 356
             C556 392, 591 392, 619 356
             C647 320, 681 320, 709 356
             C737 392, 772 392, 800 356
             C828 320, 862 320, 890 356"></path>

    <path d="M445 290 L445 180"></path>
    <path d="M600 290 L600 145"></path>
    <path d="M755 290 L755 180"></path>

    <path d="M425 165 C438 132, 464 119, 486 138 C477 162, 456 176, 425 165Z"></path>
    <path d="M580 132 C597 95, 627 86, 648 111 C639 140, 618 157, 580 132Z"></path>
    <path d="M735 165 C748 132, 774 119, 796 138 C787 162, 766 176, 735 165Z"></path>

    <path d="M300 455 L900 455"></path>
  </g>
</svg>