<svg xmlns="http://www.w3.org/2000/svg" viewBox="0 0 200 200" width="100%" height="100%">
  <g stroke="currentColor" stroke-width="12" fill="none" stroke-linecap="round" stroke-linejoin="round">
    
    <path d="M 35 140
             C 15 130, 15 110, 25 90
             C 30 80, 40 70, 50 70
             C 60 70, 65 85, 75 85
             L 80 70
             L 135 95
             C 160 105, 175 110, 180 120
             C 185 135, 175 145, 155 145
             L 55 145
             C 35 145, 35 140, 35 140 Z" />
             
    <path d="M 19 118 Q 100 128 182 121" />
    
    <path d="M 23 98 Q 45 100 48 120" />
    
    <path d="M 135 122 Q 155 112 180 120" />
    
    <path d="M 88 80 L 102 94 M 102 80 L 88 94" />
    <path d="M 104 88 L 118 102 M 118 88 L 104 102" />
    <path d="M 120 96 L 134 110 M 134 96 L 120 110" />
    
  </g>
</svg>
